<svg width="36" height="19" viewBox="0 0 36 19" fill="none" xmlns="http://www.w3.org/2000/svg">
<rect width="36" height="19" rx="4" fill="#D9D9D9"/>
<path fill-rule="evenodd" clip-rule="evenodd" d="M20 9.5C20 9.22386 20.2985 9 20.6667 9H29.3333C29.7015 9 30 9.22386 30 9.5C30 9.77614 29.7015 10 29.3333 10H20.6667C20.2985 10 20 9.77614 20 9.5Z" fill="#9F9F9F"/>
<path d="M9.9 13.4C9.9 13.7314 10.1686 14 10.5 14C10.8314 14 11.1 13.7314 11.1 13.4V10.1H14.4C14.7314 10.1 15 9.83137 15 9.5C15 9.16863 14.7314 8.9 14.4 8.9H11.1V5.6C11.1 5.26863 10.8314 5 10.5 5C10.1686 5 9.9 5.26863 9.9 5.6V8.9H6.6C6.26863 8.9 6 9.16863 6 9.5C6 9.83137 6.26863 10.1 6.6 10.1H9.9V13.4Z" fill="#9F9F9F"/>
</svg>
